# xmcd CD database file
#
# Track frame offsets:
#	150
#	10455
#	23873
#	32915
#	44783
#	56393
#	70662
#	81845
#	91848
#	102871
#	115985
#	130998
#	140002
#	157754
#	166525
#	176496
#	193578
#	215326
#
# Disc length: 3034 seconds
#
# Revision: 3
# Processed by: cddbd v1.5.2PL0 Copyright (c) Steve Scherf et al.
# Submitted via: CDex 1.51
#
DISCID=ed0bd812
DTITLE=Diverse - The World Of Wanderlieder - CD 2
DYEAR=1998
DGENRE=Volksmusik
TTITLE0=Freddy Quinn - Kein schöner Land
TTITLE1=Der Stuttgarter Liederkranz - Wenn ich den Wanderer frage
TTITLE2=Bad'ner Kinderchor - Im schönsten Wiesengrunde
TTITLE3=Peter Sebastian - Lustig ist das Zigeunerleben
TTITLE4=Bad'ner Kinderchor - Auf der schwäb'schen Eisenbahne
TTITLE5=Medium Terzett - Mädel ruck ruck ruck
TTITLE6=Günter Wewel - Ein Jäger aus Kurpfalz
TTITLE7=Die Hamburger Alsterspatzen - Du, Du, liegst mir im Herzen
TTITLE8=Peter Sebastian - Jetzt kommen die lustigen Tage
TTITLE9=Freddy Quinn - Muß I denn
TTITLE10=Chor und Orchester Harry Pleva - Westerwald, Kehr ich einst..., Ein Heller und... - Potpourri
TTITLE11=Die Hamburger Alsterspatzen - Freut Euch des Lebens
TTITLE12=Der Chris Westgard Chor - Müde kehrt ein Wandersmann
TTITLE13=Andreas Henner - Chor mit Orchester - Der treue Husar 
TTITLE14=Der Chris Westgard Chor - Orchester Claudius Alzner - Über's Jahr, wenn die Kornblumen blüh'n
TTITLE15=Heintje Simons - Es löscht das Meer die Sonne aus
TTITLE16=Nymphenburger Kinderchor - Das Wandern ist des Müller's Lust
TTITLE17=Tölzer Knabenchor - Der Mai ist gekommen
EXTD=YEAR: 1998
EXTT0=
EXTT1=
EXTT2=
EXTT3=
EXTT4=
EXTT5=
EXTT6=
EXTT7=
EXTT8=
EXTT9=
EXTT10=
EXTT11=
EXTT12=
EXTT13=
EXTT14=
EXTT15=
EXTT16=
EXTT17=
PLAYORDER=
